<svg xmlns="http://www.w3.org/2000/svg" viewBox="0 0 560 320" fill="none" stroke-width="2.5" stroke-linecap="round" stroke-linejoin="round"><title>story production workflow</title><defs><linearGradient id="accent" x2="1" y2="1"><stop stop-color="#472710"/><stop offset="1" stop-color="#201a12"/></linearGradient></defs><rect width="560" height="320" rx="18" fill="#11110f" stroke="none"/><path d="M26 293h508M26 27h508" stroke="#2a261f"/><circle cx="34" cy="27" r="3" fill="#ff6a00" stroke="none"/><g><rect x="40" y="45" width="130" height="200" rx="12" fill="#1c1b18"/><rect x="57" y="62" width="96" height="105" rx="8" fill="url(#accent)" stroke="#6b4227"/><circle cx="105" cy="92" r="20" stroke="#fff0d3"/><path d="M75 149v-11c0-33 60-33 60 0v11m-64 39h66m-66 16h42m-42 16h55" stroke="#c7b99e"/><path d="M177 144h45m-12-10 13 10-13 10" stroke="#ff6a00"/><rect x="240" y="43" width="93" height="106" rx="10" fill="#201e19"/><path d="M257 66h54m-54 15h41m-41 15h50m-50 15h32m-32 15h48" stroke="#c7b99e"/><path d="M343 95h24" stroke="#ff6a00"/><rect x="382" y="47" width="123" height="166" rx="12" fill="#1c1b18"/><rect x="396" y="64" width="95" height="54" rx="6" fill="url(#accent)" stroke="#ff6a00"/><path d="m405 109 22-22 22 17 16-10 19 16m-86 26h72m-72 16h54m-54 16h65m-65 16h43" stroke="#c7b99e"/><path d="M287 157v48m-11-12 11 13 11-13" stroke="#ff6a00"/><rect x="231" y="218" width="118" height="57" rx="10" fill="#201e19"/><circle cx="256" cy="246" r="10" fill="#ff6a00" stroke="none"/><circle cx="289" cy="246" r="10" fill="#fff0d3" stroke="none"/><circle cx="322" cy="246" r="10" fill="#6b4227" stroke="none"/><path d="M356 246h87v-26" stroke="#ff6a00"/></g></svg>